<?xml version="1.0" standalone="no"?>
<!DOCTYPE svg PUBLIC "-//W3C//DTD SVG 20010904//EN"
 "http://www.w3.org/TR/2001/REC-SVG-20010904/DTD/svg10.dtd">
<svg version="1.0" xmlns="http://www.w3.org/2000/svg"
 width="225.000000pt" height="225.000000pt" viewBox="0 0 225.000000 225.000000"
 preserveAspectRatio="xMidYMid meet">
<metadata>
Created by potrace 1.14, written by Peter Selinger 2001-2017
</metadata>
<g transform="translate(0.000000,225.000000) scale(0.100000,-0.100000)"
fill="#000000" stroke="none">
<path d="M955 2046 c-344 -67 -625 -317 -725 -645 l-17 -59 566 -565 566 -566
81 28 c350 119 600 437 630 802 l7 79 -307 0 -306 0 0 -90 0 -90 201 0 201 0
-6 -27 c-12 -53 -95 -208 -140 -263 -25 -30 -72 -76 -103 -102 -58 -48 -179
-118 -204 -118 -18 0 -969 951 -969 968 0 25 69 146 115 202 143 174 350 272
580 272 134 0 231 -23 343 -82 86 -44 191 -128 237 -189 17 -22 35 -39 40 -37
6 2 41 25 78 51 80 56 81 52 -32 165 -124 125 -261 206 -426 250 -103 28 -309
36 -410 16z"/>
<path d="M195 1025 c41 -410 358 -750 765 -821 50 -8 100 -14 111 -12 15 2
-90 112 -432 453 l-451 450 7 -70z"/>
</g>
</svg>
